<svg xmlns="http://www.w3.org/2000/svg" width="190" height="32" fill="none"><path fill="#0D223A" d="M0 26.24h40.404v4.63H0v-4.63Zm7.277-8.74h33.127v4.93H7.277V17.5Zm5.361-8.75h27.766v5.23H12.638V8.75ZM17.617.01h22.787v5.53H17.617V.01ZM50.4 26.22h19.5v4.63H50.4v-4.63Zm.004-3.77V.032h5.53v22.416h-5.53Zm23.533 8.41L84.972 0h4.641v5.496H88.01L79.712 30.86h-5.775Zm5.582-7.977 1.476-4.256H95.13l1.475 4.256H79.52Zm16.895 7.977L88.116 5.495V0h3.058l11.014 30.86h-5.774Zm15.855 0V18.69L101.448 0h6.031l7.463 13.43h.15L122.556 0h6.03l-10.821 18.691V30.86h-5.496Zm34.482.534c-2.609 0-4.861-.477-6.758-1.433-1.896-.955-3.364-2.288-4.405-3.999-1.026-1.71-1.54-3.707-1.54-5.988V0h5.518v19.525c0 1.426.278 2.673.834 3.743a6.146 6.146 0 0 0 2.459 2.48c1.069.585 2.367.877 3.892.877 1.526 0 2.823-.292 3.893-.877a6.007 6.007 0 0 0 2.437-2.48c.557-1.07.835-2.317.835-3.743V0h5.496v19.974c0 2.267-.514 4.263-1.54 5.988-1.012 1.711-2.467 3.044-4.363 4-1.896.954-4.149 1.432-6.758 1.432Zm23.084-10.735V16.21h7.763c1.996 0 3.536-.506 4.619-1.518 1.098-1.027 1.647-2.466 1.647-4.32v-.043c0-1.867-.549-3.307-1.647-4.32-1.083-1.012-2.623-1.518-4.619-1.518h-7.763V0h9.132c2.081 0 3.906.428 5.474 1.283a9.21 9.21 0 0 1 3.7 3.614c.884 1.54 1.326 3.344 1.326 5.41v.044c0 2.053-.442 3.856-1.326 5.41a9.389 9.389 0 0 1-3.7 3.614c-1.568.856-3.393 1.284-5.474 1.284h-9.132Zm-2.759 10.2V0h5.518v30.86h-5.518Z"/></svg>